<mxfile host="app.diagrams.net" agent="Mozilla/5.0 (Windows NT 10.0; Win64; x64) AppleWebKit/537.36 (KHTML, like Gecko) Chrome/139.0.0.0 Safari/537.36" version="28.2.0">
  <diagram name="Page-1" id="ja6Jv6K6E00j63stfY1Q">
    <mxGraphModel dx="2179" dy="1176" grid="1" gridSize="10" guides="1" tooltips="1" connect="1" arrows="0" fold="1" page="0" pageScale="1" pageWidth="827" pageHeight="1169" math="0" shadow="0">
      <root>
        <mxCell id="0" />
        <mxCell id="1" parent="0" />
        <mxCell id="dmt541acUcm2cPtqfMdv-18" value="US-006: Auto-Assign Exception to Billing Tea" style="swimlane;childLayout=stackLayout;resizeParent=1;resizeParentMax=0;horizontal=1;startSize=20;horizontalStack=0;html=1;" vertex="1" parent="1">
          <mxGeometry x="-1050" y="-380" width="700" height="490" as="geometry" />
        </mxCell>
        <mxCell id="dmt541acUcm2cPtqfMdv-19" value="System / IT" style="swimlane;startSize=20;horizontal=0;html=1;" vertex="1" parent="dmt541acUcm2cPtqfMdv-18">
          <mxGeometry y="20" width="700" height="210" as="geometry" />
        </mxCell>
        <mxCell id="EDjaMZPSDxmGKB74mhdC-71" value="Dashboard Updated (Real-Time Status)" style="rounded=0;whiteSpace=wrap;html=1;" parent="dmt541acUcm2cPtqfMdv-19" vertex="1">
          <mxGeometry x="510" y="120" width="120" height="60" as="geometry" />
        </mxCell>
        <mxCell id="dmt541acUcm2cPtqfMdv-15" style="edgeStyle=orthogonalEdgeStyle;rounded=0;orthogonalLoop=1;jettySize=auto;html=1;exitX=1;exitY=0.5;exitDx=0;exitDy=0;entryX=0;entryY=0.5;entryDx=0;entryDy=0;" edge="1" parent="dmt541acUcm2cPtqfMdv-19" source="dmt541acUcm2cPtqfMdv-3" target="dmt541acUcm2cPtqfMdv-13">
          <mxGeometry relative="1" as="geometry" />
        </mxCell>
        <mxCell id="dmt541acUcm2cPtqfMdv-3" value="Check Assignment Rules" style="rounded=0;whiteSpace=wrap;html=1;" vertex="1" parent="dmt541acUcm2cPtqfMdv-19">
          <mxGeometry x="60" y="120" width="120" height="60" as="geometry" />
        </mxCell>
        <mxCell id="dmt541acUcm2cPtqfMdv-16" style="edgeStyle=orthogonalEdgeStyle;rounded=0;orthogonalLoop=1;jettySize=auto;html=1;exitX=1;exitY=0.5;exitDx=0;exitDy=0;entryX=0;entryY=0.5;entryDx=0;entryDy=0;" edge="1" parent="dmt541acUcm2cPtqfMdv-19" source="dmt541acUcm2cPtqfMdv-13" target="dmt541acUcm2cPtqfMdv-7">
          <mxGeometry relative="1" as="geometry" />
        </mxCell>
        <mxCell id="dmt541acUcm2cPtqfMdv-13" value="Assign Exception to Staff Member" style="rounded=0;whiteSpace=wrap;html=1;" vertex="1" parent="dmt541acUcm2cPtqfMdv-19">
          <mxGeometry x="210" y="120" width="120" height="60" as="geometry" />
        </mxCell>
        <mxCell id="dmt541acUcm2cPtqfMdv-17" style="edgeStyle=orthogonalEdgeStyle;rounded=0;orthogonalLoop=1;jettySize=auto;html=1;exitX=1;exitY=0.5;exitDx=0;exitDy=0;" edge="1" parent="dmt541acUcm2cPtqfMdv-19" source="dmt541acUcm2cPtqfMdv-7" target="EDjaMZPSDxmGKB74mhdC-71">
          <mxGeometry relative="1" as="geometry" />
        </mxCell>
        <mxCell id="dmt541acUcm2cPtqfMdv-7" value="Notification Sent to Assignee" style="rounded=0;whiteSpace=wrap;html=1;" vertex="1" parent="dmt541acUcm2cPtqfMdv-19">
          <mxGeometry x="360" y="120" width="120" height="60" as="geometry" />
        </mxCell>
        <mxCell id="dmt541acUcm2cPtqfMdv-23" style="edgeStyle=orthogonalEdgeStyle;rounded=0;orthogonalLoop=1;jettySize=auto;html=1;exitX=0;exitY=0.5;exitDx=0;exitDy=0;entryX=0;entryY=0.5;entryDx=0;entryDy=0;" edge="1" parent="dmt541acUcm2cPtqfMdv-19" source="dmt541acUcm2cPtqfMdv-22" target="dmt541acUcm2cPtqfMdv-3">
          <mxGeometry relative="1" as="geometry" />
        </mxCell>
        <mxCell id="dmt541acUcm2cPtqfMdv-22" value="Exception detected (from US-005)" style="ellipse;whiteSpace=wrap;html=1;" vertex="1" parent="dmt541acUcm2cPtqfMdv-19">
          <mxGeometry x="60" y="20" width="120" height="80" as="geometry" />
        </mxCell>
        <mxCell id="dmt541acUcm2cPtqfMdv-41" value="End" style="ellipse;whiteSpace=wrap;html=1;" vertex="1" parent="dmt541acUcm2cPtqfMdv-19">
          <mxGeometry x="510" y="40" width="120" height="50" as="geometry" />
        </mxCell>
        <mxCell id="dmt541acUcm2cPtqfMdv-20" value="Billing Manager" style="swimlane;startSize=20;horizontal=0;html=1;" vertex="1" parent="dmt541acUcm2cPtqfMdv-18">
          <mxGeometry y="230" width="700" height="150" as="geometry" />
        </mxCell>
        <mxCell id="dmt541acUcm2cPtqfMdv-36" value="Is Assignee Available?" style="rhombus;whiteSpace=wrap;html=1;" vertex="1" parent="dmt541acUcm2cPtqfMdv-20">
          <mxGeometry x="520" y="30" width="100" height="80" as="geometry" />
        </mxCell>
        <mxCell id="dmt541acUcm2cPtqfMdv-45" style="edgeStyle=orthogonalEdgeStyle;rounded=0;orthogonalLoop=1;jettySize=auto;html=1;exitX=0;exitY=0.5;exitDx=0;exitDy=0;entryX=0.5;entryY=1;entryDx=0;entryDy=0;" edge="1" parent="dmt541acUcm2cPtqfMdv-18" source="dmt541acUcm2cPtqfMdv-44" target="dmt541acUcm2cPtqfMdv-3">
          <mxGeometry relative="1" as="geometry" />
        </mxCell>
        <mxCell id="dmt541acUcm2cPtqfMdv-38" style="edgeStyle=orthogonalEdgeStyle;rounded=0;orthogonalLoop=1;jettySize=auto;html=1;exitX=0.5;exitY=1;exitDx=0;exitDy=0;" edge="1" parent="dmt541acUcm2cPtqfMdv-18" source="EDjaMZPSDxmGKB74mhdC-71" target="dmt541acUcm2cPtqfMdv-36">
          <mxGeometry relative="1" as="geometry" />
        </mxCell>
        <mxCell id="dmt541acUcm2cPtqfMdv-40" style="edgeStyle=orthogonalEdgeStyle;rounded=0;orthogonalLoop=1;jettySize=auto;html=1;exitX=1;exitY=0.5;exitDx=0;exitDy=0;entryX=1;entryY=0.5;entryDx=0;entryDy=0;" edge="1" parent="dmt541acUcm2cPtqfMdv-18" source="dmt541acUcm2cPtqfMdv-36" target="dmt541acUcm2cPtqfMdv-41">
          <mxGeometry relative="1" as="geometry">
            <mxPoint x="710" y="110" as="targetPoint" />
            <Array as="points">
              <mxPoint x="660" y="300" />
              <mxPoint x="660" y="85" />
            </Array>
          </mxGeometry>
        </mxCell>
        <mxCell id="dmt541acUcm2cPtqfMdv-42" value="Yes" style="edgeLabel;html=1;align=center;verticalAlign=middle;resizable=0;points=[];" vertex="1" connectable="0" parent="dmt541acUcm2cPtqfMdv-40">
          <mxGeometry x="-0.08" y="-1" relative="1" as="geometry">
            <mxPoint x="-21" y="91" as="offset" />
          </mxGeometry>
        </mxCell>
        <mxCell id="dmt541acUcm2cPtqfMdv-39" value="" style="endArrow=classic;html=1;rounded=0;exitX=0.5;exitY=1;exitDx=0;exitDy=0;" edge="1" parent="dmt541acUcm2cPtqfMdv-18" source="dmt541acUcm2cPtqfMdv-36" target="dmt541acUcm2cPtqfMdv-44">
          <mxGeometry width="50" height="50" relative="1" as="geometry">
            <mxPoint x="760" y="215" as="sourcePoint" />
            <mxPoint x="690" y="680" as="targetPoint" />
          </mxGeometry>
        </mxCell>
        <mxCell id="dmt541acUcm2cPtqfMdv-43" value="No" style="edgeLabel;html=1;align=center;verticalAlign=middle;resizable=0;points=[];" vertex="1" connectable="0" parent="dmt541acUcm2cPtqfMdv-39">
          <mxGeometry x="-0.2" y="1" relative="1" as="geometry">
            <mxPoint x="-1" y="-4" as="offset" />
          </mxGeometry>
        </mxCell>
        <mxCell id="dmt541acUcm2cPtqfMdv-21" value="Billing Officer" style="swimlane;startSize=20;horizontal=0;html=1;" vertex="1" parent="dmt541acUcm2cPtqfMdv-18">
          <mxGeometry y="380" width="700" height="110" as="geometry" />
        </mxCell>
        <mxCell id="dmt541acUcm2cPtqfMdv-44" value="Reassign Exception" style="rounded=0;whiteSpace=wrap;html=1;" vertex="1" parent="dmt541acUcm2cPtqfMdv-21">
          <mxGeometry x="510" y="20" width="120" height="60" as="geometry" />
        </mxCell>
      </root>
    </mxGraphModel>
  </diagram>
</mxfile>
